<svg width="170" height="35" viewBox="0 0 170 35" fill="none" xmlns="http://www.w3.org/2000/svg">
<path d="M0.556 27V2.232H17.188V7.056H6.82V12.924H15.856V17.748H6.82V27H0.556ZM26.3081 27.288C25.0841 27.288 24.1001 27.132 23.3561 26.82C22.6121 26.508 22.0481 26.052 21.6641 25.452C21.2801 24.852 21.0281 24.108 20.9081 23.22C20.7881 22.332 20.7281 21.3 20.7281 20.124V8.64H26.4881V18.36C26.4881 19.344 26.5121 20.124 26.5601 20.7C26.6321 21.252 26.7521 21.66 26.9201 21.924C27.0881 22.188 27.3401 22.356 27.6761 22.428C28.0121 22.476 28.4681 22.5 29.0441 22.5C29.6681 22.5 30.1601 22.44 30.5201 22.32C30.9041 22.176 31.1801 21.948 31.3481 21.636C31.5161 21.324 31.6241 20.892 31.6721 20.34C31.7441 19.764 31.7801 19.056 31.7801 18.216V8.64H37.5761V27H32.0681L31.9241 24.768H31.6001C31.2641 25.392 30.8321 25.896 30.3041 26.28C29.7761 26.64 29.1761 26.892 28.5041 27.036C27.8321 27.204 27.1001 27.288 26.3081 27.288ZM41.9976 27V8.64H47.4696L47.6136 11.772H47.9376C48.2736 10.884 48.6936 10.188 49.1976 9.684C49.7256 9.18 50.3616 8.832 51.1056 8.64C51.8496 8.448 52.7136 8.352 53.6976 8.352V13.644C52.1856 13.644 50.9976 13.836 50.1336 14.22C49.2696 14.604 48.6576 15.264 48.2976 16.2C47.9376 17.112 47.7576 18.396 47.7576 20.052V27H41.9976ZM56.7633 27V8.64H62.2353L62.3793 10.872H62.7033C63.0633 10.248 63.5073 9.756 64.0352 9.396C64.5633 9.012 65.1633 8.748 65.8353 8.604C66.5073 8.436 67.2393 8.352 68.0313 8.352C69.2553 8.352 70.2273 8.508 70.9473 8.82C71.6913 9.132 72.2553 9.588 72.6393 10.188C73.0233 10.788 73.2753 11.532 73.3953 12.42C73.5393 13.308 73.6113 14.34 73.6113 15.516V27H67.8153V17.28C67.8153 16.296 67.7913 15.528 67.7433 14.976C67.6953 14.4 67.5873 13.98 67.4193 13.716C67.2513 13.452 66.9873 13.296 66.6273 13.248C66.2913 13.176 65.8353 13.14 65.2593 13.14C64.6593 13.14 64.1673 13.212 63.7832 13.356C63.4233 13.476 63.1473 13.692 62.9553 14.004C62.7873 14.316 62.6673 14.76 62.5953 15.336C62.5473 15.888 62.5233 16.584 62.5233 17.424V27H56.7633ZM77.9608 4.896V0.251999H83.9008V4.896H77.9608ZM78.0328 27V8.64H83.8648V27H78.0328ZM97.7296 27.288C96.7696 27.288 95.7256 27.264 94.5976 27.216C93.4936 27.168 92.4016 27.096 91.3216 27C90.2656 26.904 89.3176 26.808 88.4776 26.712V22.068C89.3656 22.14 90.2536 22.212 91.1416 22.284C92.0536 22.356 92.9176 22.404 93.7336 22.428C94.5496 22.452 95.2336 22.464 95.7856 22.464C96.9376 22.464 97.8136 22.428 98.4136 22.356C99.0136 22.26 99.4576 22.128 99.7456 21.96C99.9376 21.792 100.07 21.612 100.142 21.42C100.238 21.228 100.298 21 100.322 20.736C100.346 20.472 100.358 20.172 100.358 19.836C100.358 19.332 100.322 18.936 100.25 18.648C100.202 18.336 100.082 18.096 99.8896 17.928C99.7216 17.76 99.4576 17.64 99.0976 17.568C98.7376 17.472 98.2696 17.388 97.6936 17.316L92.6176 16.668C91.6336 16.548 90.8296 16.308 90.2056 15.948C89.5816 15.564 89.0896 15.06 88.7296 14.436C88.3696 13.812 88.1176 13.08 87.9736 12.24C87.8296 11.376 87.7576 10.416 87.7576 9.36C87.7576 7.728 87.9976 6.432 88.4776 5.472C88.9576 4.488 89.6176 3.744 90.4576 3.24C91.3216 2.712 92.3176 2.364 93.4456 2.196C94.5976 2.028 95.8456 1.944 97.1896 1.944C98.1496 1.944 99.1456 1.98 100.178 2.052C101.21 2.1 102.182 2.184 103.094 2.304C104.006 2.4 104.762 2.52 105.362 2.664V7.2C104.762 7.104 104.054 7.032 103.238 6.984C102.446 6.912 101.618 6.864 100.754 6.84C99.8896 6.792 99.0736 6.768 98.3056 6.768C97.3696 6.768 96.6256 6.804 96.0736 6.876C95.5216 6.924 95.0896 7.032 94.7776 7.2C94.4416 7.392 94.2256 7.644 94.1296 7.956C94.0576 8.268 94.0216 8.664 94.0216 9.144C94.0216 9.744 94.0696 10.212 94.1656 10.548C94.2616 10.86 94.4776 11.076 94.8136 11.196C95.1496 11.316 95.6656 11.424 96.3616 11.52L101.294 12.096C101.966 12.168 102.578 12.288 103.13 12.456C103.706 12.624 104.222 12.888 104.678 13.248C105.158 13.608 105.554 14.124 105.866 14.796C106.034 15.108 106.166 15.492 106.262 15.948C106.358 16.38 106.442 16.884 106.514 17.46C106.586 18.036 106.622 18.684 106.622 19.404C106.622 20.82 106.478 22.02 106.19 23.004C105.902 23.964 105.494 24.732 104.966 25.308C104.438 25.86 103.802 26.292 103.058 26.604C102.314 26.892 101.486 27.072 100.574 27.144C99.6856 27.24 98.7376 27.288 97.7296 27.288ZM110.517 27V0.251999H116.277V10.764H116.601C116.961 10.164 117.393 9.696 117.897 9.36C118.425 9 119.013 8.748 119.661 8.604C120.309 8.46 121.017 8.388 121.785 8.388C123.009 8.388 123.981 8.544 124.701 8.856C125.445 9.144 126.009 9.588 126.393 10.188C126.777 10.788 127.029 11.532 127.149 12.42C127.293 13.308 127.365 14.34 127.365 15.516V27H121.569V17.28C121.569 16.296 121.545 15.528 121.497 14.976C121.449 14.4 121.341 13.98 121.173 13.716C121.005 13.452 120.741 13.296 120.381 13.248C120.045 13.176 119.589 13.14 119.013 13.14C118.413 13.14 117.921 13.212 117.537 13.356C117.177 13.476 116.901 13.692 116.709 14.004C116.541 14.316 116.421 14.76 116.349 15.336C116.301 15.888 116.277 16.584 116.277 17.424V27H110.517ZM139.851 27.288C138.219 27.288 136.863 27.192 135.783 27C134.703 26.808 133.851 26.496 133.227 26.064C132.603 25.632 132.147 25.056 131.859 24.336C131.571 23.616 131.379 22.716 131.283 21.636C131.211 20.556 131.175 19.272 131.175 17.784C131.175 16.296 131.211 15.024 131.283 13.968C131.379 12.888 131.571 11.988 131.859 11.268C132.147 10.548 132.603 9.972 133.227 9.54C133.851 9.108 134.703 8.808 135.783 8.64C136.863 8.448 138.219 8.352 139.851 8.352C141.507 8.352 142.875 8.448 143.955 8.64C145.035 8.808 145.887 9.108 146.511 9.54C147.135 9.972 147.591 10.548 147.879 11.268C148.167 11.988 148.347 12.888 148.419 13.968C148.515 15.024 148.563 16.296 148.563 17.784C148.563 19.272 148.515 20.556 148.419 21.636C148.347 22.716 148.167 23.616 147.879 24.336C147.591 25.056 147.135 25.632 146.511 26.064C145.887 26.496 145.035 26.808 143.955 27C142.875 27.192 141.507 27.288 139.851 27.288ZM139.851 22.896C140.571 22.896 141.135 22.848 141.543 22.752C141.951 22.656 142.239 22.44 142.407 22.104C142.575 21.768 142.671 21.252 142.695 20.556C142.743 19.86 142.767 18.936 142.767 17.784C142.767 16.632 142.743 15.72 142.695 15.048C142.671 14.376 142.575 13.872 142.407 13.536C142.239 13.2 141.951 12.984 141.543 12.888C141.135 12.792 140.571 12.744 139.851 12.744C139.131 12.744 138.567 12.792 138.159 12.888C137.775 12.984 137.499 13.2 137.331 13.536C137.163 13.872 137.055 14.376 137.007 15.048C136.983 15.72 136.971 16.632 136.971 17.784C136.971 18.936 136.983 19.86 137.007 20.556C137.055 21.252 137.163 21.768 137.331 22.104C137.499 22.44 137.775 22.656 138.159 22.752C138.567 22.848 139.131 22.896 139.851 22.896ZM152.423 34.164V8.64H157.895L158.039 10.872H158.363C158.747 10.176 159.203 9.648 159.731 9.288C160.283 8.928 160.895 8.688 161.567 8.568C162.239 8.424 162.911 8.352 163.583 8.352C164.663 8.352 165.575 8.496 166.319 8.784C167.087 9.072 167.711 9.576 168.191 10.296C168.695 10.992 169.055 11.952 169.271 13.176C169.511 14.4 169.631 15.936 169.631 17.784C169.631 19.608 169.511 21.132 169.271 22.356C169.055 23.58 168.707 24.552 168.227 25.272C167.747 25.992 167.123 26.508 166.355 26.82C165.611 27.132 164.699 27.288 163.619 27.288C162.923 27.288 162.251 27.228 161.603 27.108C160.955 26.988 160.367 26.772 159.839 26.46C159.335 26.124 158.891 25.656 158.507 25.056H158.183V34.164H152.423ZM160.991 22.536C161.639 22.536 162.155 22.488 162.539 22.392C162.923 22.296 163.199 22.104 163.367 21.816C163.559 21.504 163.679 21.036 163.727 20.412C163.799 19.788 163.835 18.924 163.835 17.82C163.835 16.716 163.799 15.852 163.727 15.228C163.679 14.58 163.559 14.112 163.367 13.824C163.199 13.512 162.923 13.32 162.539 13.248C162.155 13.152 161.639 13.104 160.991 13.104C160.295 13.104 159.755 13.2 159.371 13.392C159.011 13.56 158.735 13.86 158.543 14.292C158.399 14.676 158.303 15.168 158.255 15.768C158.207 16.344 158.183 17.028 158.183 17.82C158.183 18.636 158.207 19.332 158.255 19.908C158.303 20.484 158.387 20.94 158.507 21.276C158.699 21.756 158.987 22.092 159.371 22.284C159.755 22.452 160.295 22.536 160.991 22.536Z" fill="white"/>
</svg>
